<?xml version="1.0" encoding="UTF-8" standalone="no"?>
<svg
   xmlns:dc="http://purl.org/dc/elements/1.1/"
   xmlns:cc="http://creativecommons.org/ns#"
   xmlns:rdf="http://www.w3.org/1999/02/22-rdf-syntax-ns#"
   xmlns:svg="http://www.w3.org/2000/svg"
   xmlns="http://www.w3.org/2000/svg"
   xmlns:xlink="http://www.w3.org/1999/xlink"
   xmlns:sodipodi="http://sodipodi.sourceforge.net/DTD/sodipodi-0.dtd"
   xmlns:inkscape="http://www.inkscape.org/namespaces/inkscape"
   width="133.11298mm"
   height="135.46667mm"
   viewBox="0 0 133.11298 135.46667"
   version="1.1"
   id="svg8"
   inkscape:version="1.0.2 (e86c870879, 2021-01-15)"
   sodipodi:docname="naenaranewlogo.svg">
  <defs
     id="defs2">
    <linearGradient
       inkscape:collect="always"
       id="linearGradient1563">
      <stop
         style="stop-color:#6dd8ff;stop-opacity:1"
         offset="0"
         id="stop1559" />
      <stop
         style="stop-color:#0028cd;stop-opacity:1"
         offset="1"
         id="stop1561" />
    </linearGradient>
    <linearGradient
       inkscape:collect="always"
       id="linearGradient1553">
      <stop
         style="stop-color:#d4003f;stop-opacity:1;"
         offset="0"
         id="stop1549" />
      <stop
         style="stop-color:#d4003f;stop-opacity:0;"
         offset="1"
         id="stop1551" />
    </linearGradient>
    <linearGradient
       inkscape:collect="always"
       id="linearGradient1462">
      <stop
         style="stop-color:#ffffff;stop-opacity:1"
         offset="0"
         id="stop1458" />
      <stop
         style="stop-color:#00518c;stop-opacity:0"
         offset="1"
         id="stop1460" />
    </linearGradient>
    <linearGradient
       inkscape:collect="always"
       id="linearGradient1338">
      <stop
         style="stop-color:#2c8ec3;stop-opacity:1"
         offset="0"
         id="stop1334" />
      <stop
         style="stop-color:#64fdef;stop-opacity:1"
         offset="1"
         id="stop1336" />
    </linearGradient>
    <linearGradient
       inkscape:collect="always"
       id="linearGradient1140">
      <stop
         style="stop-color:#ffffff;stop-opacity:1;"
         offset="0"
         id="stop1136" />
      <stop
         style="stop-color:#40e6ff;stop-opacity:1"
         offset="1"
         id="stop1138" />
    </linearGradient>
    <radialGradient
       inkscape:collect="always"
       xlink:href="#linearGradient1140"
       id="radialGradient1142"
       cx="38.949913"
       cy="164.95276"
       fx="38.949913"
       fy="164.95276"
       r="10.044506"
       gradientTransform="matrix(1.8797103,0.27725386,-0.61546959,4.1728871,67.258689,-534.77681)"
       gradientUnits="userSpaceOnUse" />
    <filter
       inkscape:collect="always"
       style="color-interpolation-filters:sRGB"
       id="filter1325"
       x="-0.0056411074"
       width="1.0112822"
       y="-0.010172279"
       height="1.0203446">
      <feGaussianBlur
         inkscape:collect="always"
         stdDeviation="0.064172802"
         id="feGaussianBlur1327" />
    </filter>
    <linearGradient
       inkscape:collect="always"
       xlink:href="#linearGradient1338"
       id="linearGradient1340"
       x1="48.027111"
       y1="176.25374"
       x2="47.350182"
       y2="149.5733"
       gradientUnits="userSpaceOnUse" />
    <filter
       inkscape:collect="always"
       style="color-interpolation-filters:sRGB"
       id="filter1452"
       x="-0.01513402"
       width="1.030268"
       y="-0.014949577"
       height="1.0298992">
      <feGaussianBlur
         inkscape:collect="always"
         stdDeviation="0.171038"
         id="feGaussianBlur1454" />
    </filter>
    <linearGradient
       inkscape:collect="always"
       xlink:href="#linearGradient1462"
       id="linearGradient1464"
       x1="47.720718"
       y1="155.36516"
       x2="47.204693"
       y2="167.16019"
       gradientUnits="userSpaceOnUse" />
    <linearGradient
       inkscape:collect="always"
       xlink:href="#linearGradient1553"
       id="linearGradient1555"
       x1="275.27911"
       y1="675.69995"
       x2="131.15198"
       y2="603.76813"
       gradientUnits="userSpaceOnUse"
       gradientTransform="matrix(0.26106194,0,0,0.26106194,33.588613,2.4920432)" />
    <radialGradient
       inkscape:collect="always"
       xlink:href="#linearGradient1563"
       id="radialGradient1557"
       cx="61.678997"
       cy="178.5509"
       fx="61.678997"
       fy="178.5509"
       r="14.631023"
       gradientTransform="matrix(1.3138633,0.40781303,-0.19037778,0.6133314,47.400994,41.831051)"
       gradientUnits="userSpaceOnUse" />
  </defs>
  <sodipodi:namedview
     id="base"
     pagecolor="#ffffff"
     bordercolor="#666666"
     borderopacity="1.0"
     inkscape:pageopacity="0.0"
     inkscape:pageshadow="2"
     inkscape:zoom="0.7"
     inkscape:cx="446.40634"
     inkscape:cy="209.27919"
     inkscape:document-units="mm"
     inkscape:current-layer="layer1"
     inkscape:document-rotation="0"
     showgrid="false"
     fit-margin-top="0"
     fit-margin-left="0"
     fit-margin-right="0"
     fit-margin-bottom="0"
     inkscape:window-width="1920"
     inkscape:window-height="1017"
     inkscape:window-x="0"
     inkscape:window-y="0"
     inkscape:window-maximized="1" />
  <metadata
     id="metadata5">
    <rdf:RDF>
      <cc:Work
         rdf:about="">
        <dc:format>image/svg+xml</dc:format>
        <dc:type
           rdf:resource="http://purl.org/dc/dcmitype/StillImage" />
        <dc:title></dc:title>
      </cc:Work>
    </rdf:RDF>
  </metadata>
  <g
     inkscape:label="Layer 1"
     inkscape:groupmode="layer"
     id="layer1"
     transform="translate(-47.450302,-77.03023)">
    <g
       id="g1609"
       transform="matrix(4.6103581,0,0,4.6103581,-329.56883,-638.02165)">
      <g
         id="g1587"
         transform="matrix(1.0211049,0,0,1.0211049,-2.0305637,-3.6261708)"
         style="stroke-width:0.979331">
        <path
           style="fill:#0028cd;fill-opacity:1;stroke:none;stroke-width:0.259114px;stroke-linecap:butt;stroke-linejoin:miter;stroke-opacity:1"
           d="m 110.35075,170.93612 c 0,0 -0.0841,-1.54847 -1.38336,-3.05372 -1.29929,-1.50526 -2.11382,3.40848 -1.97061,3.75775 0.14321,0.34926 1.75432,1.54131 1.75432,1.54131 0,0 1.40208,-1.23668 1.59965,-2.24534 z"
           id="path912" />
        <path
           style="fill:#8b8b8b;fill-opacity:1;stroke:none;stroke-width:0.259114px;stroke-linecap:butt;stroke-linejoin:miter;stroke-opacity:1"
           d="m 110.06703,171.6933 c 0,0 0.0728,-1.20178 -0.86664,-2.32317 -0.93941,-1.1214 -1.38926,0.23793 -1.37375,0.60104 0.0155,0.36311 -0.0928,1.19232 0.2614,1.81146 0.35426,0.61913 0.72185,1.12363 0.72185,1.12363 l -0.0588,0.2752 z"
           id="path914" />
        <path
           style="fill:#5a001a;fill-opacity:1;stroke:none;stroke-width:0.259114px;stroke-linecap:butt;stroke-linejoin:miter;stroke-opacity:1"
           d="m 109.82434,171.84427 c 0,0 0.0214,-0.88365 -0.501,-1.3517 -0.52242,-0.46804 -0.9822,0.0237 -0.99361,0.29843 -0.0114,0.27479 -0.068,0.85333 -0.0114,1.38656 0.0566,0.53323 -0.0352,0.6528 0.11071,0.74165 0.14592,0.0889 0.68364,0.23805 1.39531,-1.07494 z"
           id="path916" />
      </g>
      <path
         style="fill:#0028cd;fill-opacity:1;stroke:none;stroke-width:0.264583px;stroke-linecap:butt;stroke-linejoin:miter;stroke-opacity:1"
         d="m 82.654617,163.05196 c 0,0 0.692164,-1.22854 3.3218,-1.26283 2.629638,-0.0343 1.301695,2.84246 1.136284,3.15909 -0.165414,0.31666 -2.267639,1.37963 -2.345893,1.37963 -0.07825,0 -1.91445,-0.46099 -1.91445,-0.46099 z"
         id="path929" />
      <g
         id="g1547"
         transform="translate(59.179141,-1.6920004e-5)">
        <circle
           style="fill:url(#linearGradient1340);fill-opacity:1;stroke:none;stroke-width:0.387001;paint-order:stroke fill markers"
           id="circle1059"
           cx="47.917778"
           cy="166.93808"
           r="13.74958"
           transform="rotate(3.8650502)" />
        <path
           id="path1070"
           style="mix-blend-mode:normal;fill:#00518c;fill-opacity:1;stroke:none;stroke-width:0.264583px;stroke-linecap:butt;stroke-linejoin:miter;stroke-opacity:1;filter:url(#filter1325)"
           d="m 29.423633,158.33207 a 13.74958,13.74958 0 0 0 -4.796089,4.98729 l 0.515215,0.0863 c 0,0 0.917325,0.63511 1.038179,0.63511 0.120854,0 0.293541,-0.21071 0.414445,-0.34469 0.120904,-0.13435 1.111647,0.009 1.307415,-0.003 0.195773,-0.0121 1.219562,0.82838 1.219562,0.82838 l -0.512114,0.60926 c 0,0 -0.124941,-0.26688 -0.130741,-0.40618 -0.0058,-0.1393 -0.525547,-0.75757 -0.525547,-0.75757 l -0.571543,0.13539 c 0,0 -2.829966,0.0381 -3.163114,0.003 a 13.74958,13.74958 0 0 0 -1.156002,3.63492 c 0.428963,0.6374 0.872316,1.29566 0.890385,1.32292 0.04382,0.0661 2.314928,0.36897 2.610693,0.26458 0.295761,-0.10439 -0.129831,-0.57875 -0.233061,-0.74104 -0.10323,-0.16229 0.125574,-1.18597 0.125574,-1.18597 l -0.314192,-1.12913 0.413926,-0.87024 -0.938442,-0.46663 0.164848,-0.41031 c 0,0 0.161081,0.16064 0.293005,0.26923 0.131924,0.1086 0.923457,0.34106 0.923457,0.34106 0,0 0.0113,0.4569 -0.115755,0.4222 -0.127053,-0.0347 -0.495577,0.64751 -0.495577,0.64751 0,0 0.40016,0.32287 0.595314,0.46043 0.195149,0.13757 -0.06511,0.67852 -0.06511,0.67852 0,0 0.304464,0.0826 0.232545,0.22789 -0.07192,0.1453 -0.596347,0.0713 -0.596347,0.0713 l -0.01499,0.80719 c 0,0 0.582927,0.17726 0.778248,0.0951 0.195318,-0.0822 1.41841,-1.06406 1.528588,-1.13016 0.110178,-0.0661 -0.807702,-0.81132 -0.807702,-0.81132 0,0 -0.107341,-0.46604 0.16433,-0.45424 0.271669,0.0118 1.884125,1.44281 1.884125,1.44281 l -0.06305,1.64744 c 0,0 0.128006,0.2154 0.172083,-0.0734 0.04408,-0.28875 1.560113,-1.52032 1.560113,-1.52032 0,0 0.387363,0.0573 0.598413,0.63717 0.211053,0.5799 1.136364,1.04593 1.136364,1.04593 0,0 -0.01078,-0.96635 0.0072,-1.1684 0.01804,-0.20202 1.000456,0.0403 1.000456,0.0403 l 0.02222,-0.25115 c 0.02228,-0.2511 0.661585,-0.70249 0.672827,-0.72709 0.01124,-0.0247 -0.161856,-1.11081 -0.118856,-1.29863 0.043,-0.18781 0.542087,-0.0636 0.542087,-0.0636 0,0 -0.0031,0.87845 0.131257,1.09916 0.134342,0.22068 0.725019,-0.0755 0.725019,-0.0755 0,0 -0.03543,-0.17831 -0.146243,-0.27957 -0.11081,-0.10126 -0.176353,-0.89736 -0.01292,-0.93276 0.163425,-0.0354 0.997347,-0.34998 1.206646,-0.71572 0.209296,-0.36572 -0.09001,-0.42908 -0.230479,-0.52658 -0.14047,-0.0975 -0.05943,-0.44597 -0.05943,-0.44597 0,0 0.441068,-0.41483 0.734322,-0.71882 0.293245,-0.30399 0.856295,0.38413 0.995804,0.40773 0.13951,0.0236 0.221739,-0.18176 0.468188,-0.41444 0.246446,-0.23267 0.606912,0.34783 1.054198,0.53123 0.447289,0.1834 1.172022,-0.75137 1.172022,-0.75137 0,0 0.567574,0.23616 0.937927,0.23616 0.37035,0 0.275952,-0.28681 0.275952,-0.28681 0,0 -0.550701,-0.15362 -0.877982,-0.28473 -0.327282,-0.13115 -0.345901,-0.50466 -0.386541,-0.56896 -0.04064,-0.0643 -0.760793,-0.0785 -0.889868,-0.0785 -0.129077,0 -0.506864,-0.19999 -0.977717,-0.34158 -0.470852,-0.1416 -0.98702,-0.60875 -0.98702,-0.60875 l -3.589962,-0.0145 c 0,0 -0.242361,-0.1994 -0.242361,-0.2868 0,-0.0874 0.100116,-0.38721 0.177766,-0.51367 0.07765,-0.12646 0.906404,-0.40979 0.906404,-0.40979 l -0.03979,-0.54105 -1.132229,-0.12919 c 0,0 -0.798819,0.74953 -0.856279,0.77153 -0.05747,0.022 -0.977717,0.0594 -0.977717,0.0594 l -0.879017,0.55294 -0.0615,-0.57154 c 0,0 0.818846,-0.11722 0.973585,-0.10542 0.154741,0.0118 0.600837,-0.30359 0.690396,-0.38189 0.08956,-0.0782 -0.624986,-0.30797 -0.679546,-0.35088 -0.05456,-0.0429 -1.950267,-0.18397 -1.950267,-0.18397 l -0.932759,0.84853 -0.615466,0.63148 -0.365871,-0.26768 c 0,0 0.57818,-0.46046 0.656291,-0.51366 0.07811,-0.0532 0.715221,-0.82458 0.796851,-0.9555 0.08163,-0.13094 -1.012857,-0.24443 -1.01286,-0.24443 -0.05151,-0.0689 -0.116398,-0.12358 -0.192236,-0.1664 z m 15.684831,3.16621 c -0.01508,0.39473 0.629626,0.87928 -0.310057,1.06092 -0.939681,0.18164 -1.396299,0.0837 -1.396299,0.0837 0,0 0.262824,0.32218 0.06925,0.51263 -0.193583,0.19045 -0.918456,0.49207 -0.824757,0.5705 0.0937,0.0785 0.167733,0.57964 0.426331,0.59635 0.258596,0.0167 1.563487,0.0848 1.673799,0.0848 0.110316,0 1.340689,1.00395 1.379763,1.26297 0.03907,0.25902 0.08682,0.66766 0.08682,0.66766 l 0.190169,0.31523 c 0,0 -0.23359,1.0529 0.392226,2.1978 0.625819,1.1449 0.580324,1.59266 0.580324,1.59266 0,0 1.055857,0.63077 1.280544,0.76378 0.224689,0.13302 0.287329,0.58765 0.404108,1.03715 0.116102,0.44688 0.865109,1.28853 0.87385,1.22473 a 13.74958,13.74958 0 0 0 0.401008,-2.49287 13.74958,13.74958 0 0 0 0.02997,-0.7612 l -0.476972,0.49093 c 0,0 -1.302597,-0.0229 -1.481048,-0.17157 -0.17845,-0.14855 -0.160615,-1.15944 0.112655,-1.17615 0.273267,-0.0167 1.588534,-0.0848 1.588534,-0.0848 l 0.213424,-0.33331 a 13.74958,13.74958 0 0 0 -2.438093,-6.7722 c -0.637474,0.0921 -1.430682,0.2291 -1.419035,0.3297 0.01842,0.15913 0.628806,1.33744 0.800984,1.43143 0.17218,0.094 0.539501,0.44442 0.539501,0.44442 0,0 0.250772,0.15497 0.400492,0.3545 0.149722,0.19952 0.29672,0.30472 0.300241,0.48059 0.0035,0.17586 0.004,0.26001 0.220141,0.37672 0.216109,0.11672 0.332087,0.20443 0.249082,0.33383 -0.08301,0.12941 0.134485,0.0939 -0.03256,0.31058 -0.167045,0.21674 -0.298773,0.59705 -0.384471,0.19999 -0.0857,-0.39706 -0.169276,-0.43284 -0.23513,-0.6966 -0.06585,-0.26377 -0.06071,-0.25962 -0.313674,-0.54726 -0.252966,-0.28765 -0.186272,-0.18191 -0.28629,-0.49867 -0.100013,-0.31675 -0.460542,-0.41504 -0.622184,-0.56431 -0.161644,-0.14926 -0.418465,-0.29964 -0.516763,-0.49816 -0.09829,-0.19852 -0.08014,-0.0909 -0.228928,-0.44287 -0.148788,-0.35198 -0.368165,-0.50325 -0.318844,-0.76894 0.04932,-0.26569 0.262435,-0.71856 0.187071,-0.76378 -0.07536,-0.0452 -1.115179,-0.1509 -1.115179,-0.1509 z m -6.097302,3.11403 c -0.208867,0.19124 -0.37203,0.23813 -0.494543,0.67954 -0.12251,0.44142 -0.06415,0.50089 -0.335381,0.68988 -0.271227,0.18899 -0.412892,0.44907 -0.412895,0.44907 l 0.406694,0.13487 c 0,0 0.478327,-0.34688 0.673346,-0.66404 0.195014,-0.31716 0.338915,-0.89324 0.283186,-1.00355 -0.05573,-0.11032 -0.120407,-0.28577 -0.120407,-0.28577 z m -4.309297,4.48758 c -0.05026,0.004 -0.0973,0.0276 -0.109038,0.0971 -0.02347,0.13909 -0.03573,0.29929 -0.04754,0.35295 -0.0118,0.0537 -0.210225,0.19025 -0.09818,0.20205 0.112043,0.0118 0.225308,0.0367 0.225308,0.0367 0,0 0.05163,-0.16086 0.116274,-0.26717 0.06464,-0.1063 0.09009,-0.38461 0.04134,-0.40153 -0.02438,-0.008 -0.0779,-0.0241 -0.128158,-0.0202 z m -4.167188,0.87281 c -0.03593,-9.5e-4 -0.05315,0.0161 -0.01188,0.0868 0.08254,0.14145 0.08814,0.24679 0.218075,0.21136 0.129929,-0.0354 0.256767,-0.165 0.133323,-0.18862 -0.123438,-0.0236 -0.216005,-0.0899 -0.216005,-0.0899 -0.03293,0 -0.08758,-0.0187 -0.123508,-0.0196 z m 3.452503,0.17519 c -0.318712,0.008 -0.76327,0.0687 -0.886251,0.0687 0.0096,-0.0221 0.05336,0.38574 0.169497,0.46664 0.116134,0.0809 0.238125,0.23224 0.512115,0.25063 0.273992,0.0184 0.234296,-0.15677 0.394808,-0.41961 0.160547,-0.26287 0.161716,-0.14148 0.150895,-0.29766 -0.0041,-0.0586 -0.149836,-0.0733 -0.341064,-0.0687 z m -1.917195,0.18758 c -0.113524,-5.7e-4 -0.275,0.0641 -0.471807,0.0641 l -0.146762,0.0465 c 0,0 -0.02252,0.30677 0.178284,0.36587 0.2008,0.0591 0.200949,4.5e-4 0.519867,-0.094 0.31891,-0.0945 0.152958,-0.0825 0.07028,-0.28319 -0.03101,-0.0752 -0.08174,-0.0989 -0.14986,-0.0992 z m 4.175456,1.05833 c -0.224187,-3e-5 -0.88074,0.0983 -0.830958,0.10956 0,0 0.02806,0.14208 0.08372,0.15658 0.05567,0.0145 0.54622,0.0202 0.54622,0.0202 0,0 0.05191,0.3121 0.147793,0.36019 0.09589,0.0481 0.817883,0.11811 0.823206,0.0915 0.0053,-0.0266 0.223092,-0.083 -0.134358,-0.21032 -0.357449,-0.1273 -0.480909,-0.48449 -0.569473,-0.5209 -0.01107,-0.005 -0.03412,-0.007 -0.06615,-0.007 z m -1.358575,0.42117 c -0.308292,0.0199 -1.361744,0.19109 -1.449006,0.17053 l 1.043347,0.88315 c 0,0 0.911741,0.43398 1.031978,0.50488 0.120235,0.0709 0.837386,-0.0239 0.872816,-0.10387 0.03546,-0.08 0.05937,-0.66119 0.01085,-0.75189 -0.04851,-0.0907 -1.359175,-0.66655 -1.428337,-0.70125 -0.0086,-0.004 -0.0376,-0.004 -0.08165,-0.002 z" />
        <ellipse
           style="opacity:0.55166;fill:none;fill-opacity:1;stroke:#ffffff;stroke-width:0.100007;stroke-miterlimit:4;stroke-dasharray:none;paint-order:stroke fill markers;filter:url(#filter1452)"
           id="circle994"
           cx="49.528355"
           cy="167.33035"
           rx="9.1865339"
           ry="13.75848"
           transform="matrix(0.9982287,0.05949343,-0.07636161,0.99708019,0,0)" />
        <ellipse
           style="opacity:0.55166;fill:none;fill-opacity:1;stroke:#ffffff;stroke-width:0.1;stroke-miterlimit:4;stroke-dasharray:none;paint-order:stroke fill markers;filter:url(#filter1452)"
           id="ellipse996"
           cx="48.02449"
           cy="166.93088"
           rx="3.4816816"
           ry="13.74958"
           transform="rotate(3.8650502)" />
        <path
           id="circle1020"
           style="opacity:0.55166;fill:none;fill-opacity:1;stroke:#ffffff;stroke-width:0.1;stroke-miterlimit:4;stroke-dasharray:none;paint-order:stroke fill markers;filter:url(#filter1452)"
           d="M 50.12866,166.86676 A 27.890053,27.890053 0 0 1 24.715583,163.02269" />
        <path
           id="circle1022"
           style="opacity:0.55166;fill:none;fill-opacity:1;stroke:#ffffff;stroke-width:0.1;stroke-miterlimit:4;stroke-dasharray:none;paint-order:stroke fill markers;filter:url(#filter1452)"
           d="M 46.30498,159.946 A 17.498693,17.498693 0 0 1 29.384414,157.94493" />
        <path
           id="circle1024"
           style="opacity:0.55166;fill:none;fill-opacity:1;stroke:#ffffff;stroke-width:0.1;stroke-miterlimit:4;stroke-dasharray:none;paint-order:stroke fill markers;filter:url(#filter1452)"
           d="M 49.88062,173.61274 A 35.629898,35.629898 0 0 1 23.004922,168.25978" />
        <path
           id="circle1026"
           style="opacity:0.55166;fill:none;fill-opacity:1;stroke:#ffffff;stroke-width:0.1;stroke-miterlimit:4;stroke-dasharray:none;paint-order:stroke fill markers;filter:url(#filter1452)"
           d="M 43.70878,181.60777 A 35.629898,35.629898 0 0 1 25.845435,178.26291" />
        <path
           id="path1183"
           style="fill:url(#radialGradient1142);fill-opacity:1;stroke:none;stroke-width:0.264583px;stroke-linecap:butt;stroke-linejoin:miter;stroke-opacity:1"
           d="m 29.362548,158.07097 a 13.74958,13.74958 0 0 0 -4.796089,4.98729 l 0.515214,0.0863 c 0,0 0.917325,0.63511 1.038179,0.63511 0.120854,0 0.293541,-0.21071 0.414446,-0.34469 0.120904,-0.13435 1.111646,0.009 1.307414,-0.003 0.195773,-0.0121 1.219563,0.82837 1.219563,0.82837 l -0.512115,0.60927 c 0,0 -0.124941,-0.26688 -0.130741,-0.40618 -0.0058,-0.1393 -0.525547,-0.75758 -0.525547,-0.75758 l -0.571542,0.1354 c 0,0 -2.829967,0.0381 -3.163115,0.003 a 13.74958,13.74958 0 0 0 -1.156002,3.63492 c 0.428963,0.6374 0.872316,1.29566 0.890385,1.32292 0.04382,0.0661 2.314929,0.36897 2.610693,0.26458 0.295762,-0.10439 -0.12983,-0.57875 -0.23306,-0.74104 -0.10323,-0.16229 0.125574,-1.18597 0.125574,-1.18597 l -0.314193,-1.12913 0.413927,-0.87024 -0.938443,-0.46663 0.164848,-0.41031 c 0,0 0.161081,0.16064 0.293005,0.26923 0.131924,0.1086 0.923457,0.34106 0.923457,0.34106 0,0 0.0113,0.4569 -0.115755,0.4222 -0.127053,-0.0347 -0.495576,0.64751 -0.495576,0.64751 0,0 0.400159,0.32287 0.595313,0.46043 0.195149,0.13757 -0.06511,0.67852 -0.06511,0.67852 0,0 0.304464,0.0826 0.232545,0.22789 -0.07192,0.1453 -0.596347,0.0713 -0.596347,0.0713 l -0.01497,0.80719 c 0,0 0.582927,0.17726 0.778248,0.0951 0.195318,-0.0822 1.41841,-1.06406 1.528588,-1.13016 0.110178,-0.0661 -0.807702,-0.81132 -0.807702,-0.81132 0,0 -0.107341,-0.46604 0.16433,-0.45424 0.271669,0.0118 1.884125,1.44281 1.884125,1.44281 l -0.06305,1.64744 c 0,0 0.128006,0.2154 0.172083,-0.0734 0.04408,-0.28875 1.560112,-1.52032 1.560112,-1.52032 0,0 0.387364,0.0573 0.598414,0.63717 0.211053,0.5799 1.136364,1.04593 1.136364,1.04593 0,0 -0.0108,-0.96635 0.0072,-1.1684 0.01805,-0.20202 1.000456,0.0403 1.000456,0.0403 l 0.02222,-0.25115 c 0.02228,-0.2511 0.661585,-0.70249 0.672827,-0.72709 0.01125,-0.0247 -0.161856,-1.11081 -0.118856,-1.29863 0.043,-0.18781 0.542087,-0.0636 0.542087,-0.0636 0,0 -0.0031,0.87845 0.131257,1.09916 0.134342,0.22068 0.725019,-0.0755 0.725019,-0.0755 0,0 -0.03543,-0.17831 -0.146243,-0.27957 -0.11081,-0.10126 -0.176353,-0.89736 -0.01291,-0.93276 0.163425,-0.0354 0.997347,-0.34998 1.206646,-0.71572 0.209296,-0.36572 -0.09001,-0.42908 -0.230479,-0.52658 -0.14047,-0.0975 -0.05943,-0.44597 -0.05943,-0.44597 0,0 0.441068,-0.41483 0.734322,-0.71882 0.293245,-0.30399 0.856294,0.38413 0.995804,0.40773 0.139509,0.0236 0.221739,-0.18176 0.468188,-0.41444 0.246446,-0.23267 0.606912,0.34783 1.054198,0.53123 0.447289,0.1834 1.172022,-0.75137 1.172022,-0.75137 0,0 0.567574,0.23616 0.937927,0.23616 0.37035,0 0.275952,-0.28681 0.275952,-0.28681 0,0 -0.550701,-0.15362 -0.877982,-0.28473 -0.327282,-0.13115 -0.345901,-0.50466 -0.386541,-0.56896 -0.04064,-0.0643 -0.760793,-0.0785 -0.889868,-0.0785 -0.129077,0 -0.506865,-0.19999 -0.977717,-0.34158 -0.470853,-0.1416 -0.98702,-0.60875 -0.98702,-0.60875 l -3.589962,-0.0145 c 0,0 -0.242361,-0.19941 -0.242361,-0.28681 0,-0.0874 0.100116,-0.3872 0.177766,-0.51366 0.07765,-0.12646 0.906404,-0.40979 0.906404,-0.40979 l -0.03979,-0.54106 -1.132229,-0.12919 c 0,0 -0.798819,0.74953 -0.856279,0.77153 -0.05747,0.022 -0.977717,0.0594 -0.977717,0.0594 l -0.879017,0.55294 -0.06149,-0.57154 c 0,0 0.818846,-0.11722 0.973585,-0.10542 0.154741,0.0118 0.600837,-0.30359 0.690396,-0.38189 0.08956,-0.0782 -0.624986,-0.30798 -0.679546,-0.35089 -0.05456,-0.0429 -1.950267,-0.18396 -1.950267,-0.18396 l -0.93276,0.84852 -0.615465,0.63149 -0.365871,-0.26769 c 0,0 0.57818,-0.46046 0.656291,-0.51366 0.07811,-0.0532 0.715221,-0.82458 0.79685,-0.95549 0.08163,-0.13094 -1.012856,-0.24443 -1.012859,-0.24443 -0.05151,-0.0689 -0.116398,-0.12358 -0.192236,-0.1664 z m 15.68483,3.16621 c -0.01508,0.39473 0.629627,0.87928 -0.310057,1.06092 -0.939681,0.18164 -1.396299,0.0837 -1.396299,0.0837 0,0 0.262824,0.32218 0.06925,0.51263 -0.193582,0.19045 -0.918456,0.49207 -0.824757,0.5705 0.0937,0.0785 0.167733,0.57964 0.426332,0.59635 0.258595,0.0167 1.563486,0.0848 1.673799,0.0848 0.110315,0 1.340688,1.00395 1.379762,1.26297 0.03907,0.25902 0.08682,0.66766 0.08682,0.66766 l 0.190169,0.31523 c 0,0 -0.23359,1.0529 0.392227,2.1978 0.625819,1.1449 0.580323,1.59266 0.580323,1.59266 0,0 1.055857,0.63077 1.280544,0.76378 0.22469,0.13302 0.28733,0.58765 0.404109,1.03715 0.116102,0.44688 0.865108,1.28853 0.87385,1.22473 a 13.74958,13.74958 0 0 0 0.401008,-2.49287 13.74958,13.74958 0 0 0 0.02997,-0.7612 l -0.476973,0.49093 c 0,0 -1.302596,-0.0229 -1.481047,-0.17157 -0.178451,-0.14855 -0.160616,-1.15944 0.112654,-1.17615 0.273267,-0.0167 1.588535,-0.0848 1.588535,-0.0848 l 0.213423,-0.33331 a 13.74958,13.74958 0 0 0 -2.438093,-6.7722 c -0.637474,0.0921 -1.430681,0.2291 -1.419035,0.3297 0.01841,0.15913 0.628807,1.33744 0.800984,1.43143 0.17218,0.094 0.539501,0.44442 0.539501,0.44442 0,0 0.250773,0.15497 0.400492,0.3545 0.149723,0.19952 0.29672,0.30472 0.300242,0.48059 0.0035,0.17586 0.004,0.26001 0.220141,0.37672 0.216109,0.11672 0.332086,0.20443 0.249081,0.33383 -0.08301,0.12941 0.134485,0.0939 -0.03256,0.31058 -0.167044,0.21674 -0.298773,0.59705 -0.384471,0.19999 -0.0857,-0.39706 -0.169275,-0.43284 -0.23513,-0.6966 -0.06585,-0.26377 -0.06071,-0.25962 -0.313674,-0.54726 -0.252966,-0.28765 -0.186272,-0.18191 -0.28629,-0.49867 -0.100012,-0.31675 -0.460542,-0.41504 -0.622183,-0.56431 -0.161645,-0.14926 -0.418465,-0.29964 -0.516763,-0.49816 -0.09829,-0.19852 -0.08014,-0.0909 -0.228929,-0.44287 -0.148788,-0.35198 -0.368165,-0.50325 -0.318844,-0.76894 0.04932,-0.26569 0.262435,-0.71856 0.187071,-0.76378 -0.07536,-0.0452 -1.115179,-0.1509 -1.115179,-0.1509 z m -6.097301,3.11403 c -0.208868,0.19124 -0.372031,0.23813 -0.494544,0.67954 -0.12251,0.44142 -0.06415,0.50089 -0.33538,0.68988 -0.271227,0.18899 -0.412893,0.44907 -0.412896,0.44907 l 0.406694,0.13487 c 0,0 0.478327,-0.34688 0.673346,-0.66404 0.195014,-0.31716 0.338915,-0.89324 0.283186,-1.00355 -0.05573,-0.11032 -0.120406,-0.28577 -0.120406,-0.28577 z m -4.309298,4.48758 c -0.05026,0.004 -0.0973,0.0276 -0.109038,0.0971 -0.02347,0.13909 -0.03573,0.29929 -0.04754,0.35295 -0.0118,0.0537 -0.210224,0.19025 -0.09818,0.20205 0.112043,0.0118 0.225309,0.0367 0.225309,0.0367 0,0 0.05163,-0.16086 0.116274,-0.26717 0.06464,-0.1063 0.09009,-0.38461 0.04134,-0.40153 -0.02437,-0.008 -0.0779,-0.0242 -0.128159,-0.0202 z m -4.167188,0.87281 c -0.03593,-0.001 -0.05315,0.0161 -0.01188,0.0868 0.08254,0.14145 0.08814,0.24679 0.218074,0.21136 0.129929,-0.0354 0.256768,-0.165 0.133324,-0.18862 -0.123439,-0.0236 -0.216006,-0.0899 -0.216006,-0.0899 -0.03293,0 -0.08757,-0.0187 -0.123507,-0.0196 z m 3.452503,0.17519 c -0.318711,0.008 -0.76327,0.0687 -0.886251,0.0687 0.0096,-0.0221 0.05336,0.38574 0.169498,0.46664 0.116133,0.0809 0.238125,0.23224 0.512114,0.25063 0.273992,0.0185 0.234296,-0.15677 0.394809,-0.41961 0.160546,-0.26287 0.161716,-0.14148 0.150894,-0.29766 -0.004,-0.0586 -0.149836,-0.0733 -0.341064,-0.0687 z m -1.917194,0.18758 c -0.113525,-5.3e-4 -0.275,0.0641 -0.471808,0.0641 l -0.146762,0.0465 c 0,0 -0.02252,0.30677 0.178284,0.36587 0.200801,0.0591 0.200949,5.3e-4 0.519867,-0.094 0.31891,-0.0945 0.152958,-0.0825 0.07028,-0.28319 -0.03101,-0.0752 -0.08175,-0.0989 -0.14986,-0.0992 z m 4.175455,1.05833 c -0.224186,-3e-5 -0.880739,0.0983 -0.830958,0.10956 0,0 0.02806,0.14208 0.08372,0.15658 0.05567,0.0145 0.546219,0.0202 0.546219,0.0202 0,0 0.05191,0.31209 0.147793,0.36018 0.09589,0.0481 0.817883,0.11812 0.823207,0.0915 0.0053,-0.0266 0.223091,-0.083 -0.134359,-0.21032 -0.357449,-0.1273 -0.480909,-0.48449 -0.569473,-0.5209 -0.01109,-0.005 -0.03412,-0.007 -0.06615,-0.007 z m -1.358574,0.42117 c -0.308293,0.0199 -1.361744,0.19109 -1.449007,0.17053 l 1.043348,0.88315 c 0,0 0.911741,0.43398 1.031978,0.50488 0.120234,0.0709 0.837385,-0.0239 0.872815,-0.10387 0.03546,-0.08 0.05937,-0.66119 0.01085,-0.75189 -0.04851,-0.0907 -1.359175,-0.66655 -1.428337,-0.70125 -0.0087,-0.004 -0.0376,-0.004 -0.08165,-0.002 z" />
        <circle
           style="opacity:0.906603;fill:url(#linearGradient1464);fill-opacity:1;stroke:none;stroke-width:0.387001;stroke-opacity:1;paint-order:stroke fill markers"
           id="circle1456"
           cx="48.024483"
           cy="166.93088"
           r="13.74958"
           transform="rotate(3.8650502)" />
        <circle
           style="fill:none;fill-opacity:1;stroke:#0059b1;stroke-width:0.387001;stroke-opacity:1;paint-order:stroke fill markers"
           id="circle982"
           cx="48.024483"
           cy="166.93088"
           r="13.74958"
           transform="rotate(3.8650502)" />
      </g>
      <path
         style="fill:url(#radialGradient1557);fill-opacity:1;stroke:none;stroke-width:0.264583px;stroke-linecap:butt;stroke-linejoin:miter;stroke-opacity:1"
         d="m 110.64913,170.91754 c -0.80477,6.15728 -4.34735,9.11383 -4.34735,9.11383 0,0 -5.86869,3.28766 -12.771511,1.00764 -8.39427,-2.77266 -10.798653,-8.44482 -11.5383,-11.12188 -0.739648,-2.67705 0.662649,-6.86517 0.662649,-6.86517 0,0 0.393966,6.68323 13.28881,10.48497 12.052572,3.5534 14.705702,-2.61939 14.705702,-2.61939 z"
         id="path886"
         sodipodi:nodetypes="ccszcsc" />
      <path
         id="path888"
         style="fill:#ffffff;stroke:none;stroke-width:0.264583px;stroke-linecap:butt;stroke-linejoin:miter;stroke-opacity:1"
         d="m 82.654492,163.05176 c -1.290261,7.17821 1.282545,10.45466 4.355692,13.25644 3.073147,2.80178 7.677654,4.47968 11.650102,4.81143 3.889634,0.32484 6.387514,-0.48583 7.659574,-1.10444 0.0893,-0.0756 2.80898,-2.41031 3.97303,-7.19246 -0.71196,0.7534 -2.22262,2.097 -5.26707,2.83084 -4.87256,1.17448 -15.51188,-2.78983 -19.191166,-6.26137 -3.679293,-3.47154 -3.180162,-6.34044 -3.180162,-6.34044 z"
         sodipodi:nodetypes="cssccssc" />
      <path
         id="path907"
         style="fill:url(#linearGradient1555);fill-opacity:1;stroke:none;stroke-width:0.264582px;stroke-linecap:butt;stroke-linejoin:miter;stroke-opacity:1"
         d="m 82.654491,163.05176 c -0.04535,0.17691 -0.08494,0.37177 -0.119825,0.57821 -0.270353,1.59974 -0.211896,3.99912 0.418106,5.87237 0.993714,2.38918 2.881713,4.96547 5.502188,6.95332 2.620478,1.98786 5.911469,3.19517 8.355512,3.6156 4.888088,0.84085 8.711618,-0.12486 10.057008,-0.59758 0,0 5.2e-4,-5.2e-4 5.2e-4,-5.2e-4 0.80711,-0.87431 2.28919,-2.78457 3.18832,-5.776 -0.68605,0.76334 -2.17956,2.37676 -6.42508,2.8982 -2.12277,0.26071 -6.640196,-0.51424 -10.377217,-2.00283 -3.737024,-1.4886 -6.178145,-3.13127 -7.621784,-4.81333 -1.443639,-1.68207 -2.846019,-4.56776 -2.977738,-6.72746 z" />
    </g>
  </g>
</svg>
