<?xml version="1.0" standalone="no"?>
<!DOCTYPE svg>
<svg version="1.1" width="1200" height="600" xmlns="http://www.w3.org/2000/svg">
<rect style="fill:#d40000" width="1200" height="600"/>
<path style="fill:#ffcc00" d="M 600.00001,100.00001 C 588.52827,126.4739 580.68352,139.19744 577.05468,155.22071 569.19187,189.93959 585.5703,218.28321 585.5703,218.28321 L 585.58009,218.28906 H 580.47655 V 333.39454 L 502.03514,254.25782 549.02733,207.67773 530.19531,188.6797 491.68358,189.18556 464.36913,216.25978 454.92772,206.73439 427.23047,234.18751 436.67188,243.7129 410.51759,269.63867 448.1836,307.63868 474.33982,281.7129 572.5332,380.77343 502.86135,451.04884 530.56642,478.51561 580.47655,428.1621 V 499.99999 H 619.47463 V 428.13088 L 669.39451,478.49221 697.0918,451.03905 627.44531,380.7754 730.81641,276.48634 728.68162,274.37305 C 746.01075,276.32227 763.14165,274.13771 770.25975,265.75978 779.66809,254.68629 780.49305,234.68041 771.26953,220.44728 743.86995,178.16618 686.72353,172.68478 659.86523,172.58595 650.91247,172.55299 645.33982,173.11524 645.33982,173.11524 645.33982,173.11524 778.69649,225.6288 706.64845,252.57032 L 703.10937,249.06837 619.47463,333.42773 V 218.28906 H 614.37306 L 614.38281,218.28321 C 614.38281,218.28321 630.75935,189.93959 622.89646,155.22071 619.26766,139.19744 611.47174,126.4739 600.00001,100.00001 Z" id="symbol"/></svg>
