<?xml version="1.0" encoding="UTF-8" standalone="no"?>
<!-- Created with Inkscape (http://www.inkscape.org/) -->

<svg
   width="1032.6305mm"
   height="383.55463mm"
   viewBox="0 0 1032.6305 383.55463"
   version="1.1"
   id="svg5"
   inkscape:version="1.1.1 (3bf5ae0d25, 2021-09-20)"
   sodipodi:docname="Red_Star_OS_Logo_2020.svg"
   xmlns:inkscape="http://www.inkscape.org/namespaces/inkscape"
   xmlns:sodipodi="http://sodipodi.sourceforge.net/DTD/sodipodi-0.dtd"
   xmlns="http://www.w3.org/2000/svg"
   xmlns:svg="http://www.w3.org/2000/svg">
  <sodipodi:namedview
     id="namedview7"
     pagecolor="#ffffff"
     bordercolor="#666666"
     borderopacity="1.0"
     inkscape:pageshadow="2"
     inkscape:pageopacity="0.0"
     inkscape:pagecheckerboard="0"
     inkscape:document-units="mm"
     showgrid="false"
     fit-margin-top="0"
     fit-margin-left="0"
     fit-margin-right="0"
     fit-margin-bottom="0"
     inkscape:zoom="0.12360585"
     inkscape:cx="3794.3188"
     inkscape:cy="465.18834"
     inkscape:window-width="1366"
     inkscape:window-height="723"
     inkscape:window-x="0"
     inkscape:window-y="17"
     inkscape:window-maximized="1"
     inkscape:current-layer="layer1" />
  <defs
     id="defs2" />
  <g
     inkscape:label="Camada 1"
     inkscape:groupmode="layer"
     id="layer1"
     transform="translate(410.87443,40.927129)">
    <g
       id="g23840"
       transform="matrix(2.8956724,0,0,2.8956724,-214.00566,-228.86982)"
       style="stroke-width:0.345343">
      <path
         style="fill:#f42427;fill-opacity:1;stroke-width:0.0974634"
         d="m 188.88632,171.66231 c -6.45479,-1.17546 -15.63469,-5.98207 -22.91639,-11.99906 -7.26999,-6.00731 -18.71803,-18.63108 -18.27327,-20.14999 0.2872,-0.98122 7.19425,-8.04611 12.56483,-12.85222 5.61372,-5.02365 14.15259,-11.4378 15.75665,-11.83593 0.63915,-0.1586 1.73669,1.01059 2.58076,2.74942 2.46535,5.07833 6.30663,8.89566 9.93372,9.87176 2.37237,0.63847 6.19732,-1.29881 8.26692,-4.18703 0.81506,-1.13741 1.75914,-2.2075 2.09815,-2.37805 1.37111,-0.68979 12.42579,5.2264 17.59422,9.41596 2.83028,2.29435 3.61011,3.44768 3.33489,4.9322 -0.95238,5.13617 -8.68841,21.98986 -12.47201,27.17138 -0.829,1.13527 -2.88593,3.24471 -4.57092,4.68762 -4.68899,4.01521 -9.06223,5.4545 -13.89755,4.57394 z m -74.15903,-2.65017 c -2.6374,-0.56917 -4.07486,-1.90988 -4.19191,-3.90975 -0.20715,-3.53429 13.22251,-20.13954 27.15859,-33.58116 7.09973,-6.84785 17.35089,-15.80261 21.91636,-19.14478 3.33943,-2.44463 2.98603,-2.6811 -1.70832,-1.14303 -8.2455,2.70152 -16.47581,8.29184 -19.47041,13.22498 -0.61078,1.0062 -1.38478,1.96738 -1.72003,2.13608 -0.87184,0.43859 -6.02935,-6.79397 -8.30405,-11.64513 -2.12858,-4.53949 -2.17074,-9.16357 -0.10034,-11.01205 2.41735,-2.15832 9.03948,-3.3871 24.48123,-4.542633 19.0126,-1.422748 42.1656,-1.927541 71.72009,-1.563637 34.79516,0.428405 54.32977,-0.43885 61.73497,-2.7408 1.29166,-0.401539 2.36283,-0.52077 2.38052,-0.265123 0.0683,0.986252 -8.78996,6.943013 -14.30346,9.618663 -8.63353,4.18971 -12.39248,5.11028 -20.54134,5.03069 -3.7016,-0.0359 -9.73384,-0.5557 -13.40501,-1.15454 -3.67114,-0.59886 -9.20029,-1.39488 -12.28693,-1.76902 -7.66058,-0.92849 -34.72365,-0.92914 -44.26902,-0.001 -8.62626,0.83874 -7.32637,0.16242 -15.90952,8.27633 -9.28324,8.77557 -22.05361,22.80319 -26.88935,29.53661 -2.05115,2.85591 -2.30221,3.55149 -1.68463,4.66501 0.84477,1.52315 1.33582,1.56558 6.35633,0.54937 l 3.75115,-0.75929 1.73212,2.49198 c 0.95268,1.3706 3.29468,4.26097 5.20448,6.423 3.39787,3.8467 3.43,3.95375 1.49816,4.98991 -2.90329,1.55719 -10.8226,3.88024 -16.5557,4.85651 -9.70627,1.65283 -22.40421,2.33691 -26.59389,1.43272 z m 112.22973,-39.13022 c -1.20694,-0.39642 -4.65636,-2.08003 -7.66541,-3.74133 -9.24363,-5.10342 -19.51528,-7.69945 -27.35829,-6.91444 -4.1617,0.41655 -3.87012,-0.0939 0.81452,-1.4258 2.74772,-0.78128 5.16704,-1.03113 10.06343,-1.03919 7.21958,-0.0118 12.88762,1.0737 24.60543,4.71301 10.13956,3.14913 17.49594,3.88824 23.60621,2.37177 1.98854,-0.49355 0.13565,1.21298 -3.18209,2.9308 -1.75929,0.91092 -4.49226,2.06481 -6.0732,2.56422 -3.75239,1.18534 -11.93847,1.4843 -14.8106,0.54096 z m 8.56409,-9.58718 c -2.66792,-0.69842 -7.13457,-1.91327 -9.92581,-2.69967 -2.79123,-0.78639 -9.12517,-2.16176 -14.07543,-3.05635 -8.33572,-1.50638 -9.76538,-1.60672 -19.35812,-1.35887 -5.6967,0.14713 -11.22106,0.4483 -12.27628,0.66919 -3.75551,0.78604 -0.009,-0.9244 5.33106,-2.43439 13.17934,-3.7262 25.22569,-3.7711 45.9467,-0.17126 15.46035,2.68593 27.87472,2.99389 37.85552,0.93912 1.85836,-0.38259 1.85625,-0.37609 -0.42425,1.28377 -9.88838,7.19725 -22.06261,9.71076 -33.07339,6.82843 z M 182.64913,95.716374 c 0.0945,-0.131532 4.34487,-3.07063 9.44558,-6.531057 10.89623,-7.392132 25.61188,-16.317564 34.57777,-20.972309 l 6.37239,-3.308328 1.35328,0.94276 c 1.61604,1.125875 2.35365,6.266552 1.66312,11.591491 -0.65045,5.015884 -2.83293,15.943714 -3.22232,16.134243 -0.16654,0.08121 -5.03792,0.22687 -10.82551,0.323032 l -10.52291,0.174787 0.84436,-3.706777 c 0.58786,-2.580519 0.47313,-3.946594 -0.37756,-4.496025 -1.16536,-0.752731 -1.43069,-0.697176 -5.73257,1.199703 -2.48091,1.093919 -6.89902,3.541142 -9.81805,5.438315 l -5.30737,3.449364 h -4.31085 c -2.37098,0 -4.2337,-0.107697 -4.13936,-0.239523 z"
         id="path4147"
         inkscape:connector-curvature="0" />
      <path
         id="path969"
         style="fill:#f42427;fill-opacity:1;stroke:none;stroke-width:0.0913717px;stroke-linecap:butt;stroke-linejoin:miter;stroke-opacity:1"
         d="m -10.878631,113.49065 c 0,0 -9.257813,13.76644 -12.253945,19.22828 -2.996132,5.46181 1.714565,7.60721 1.714565,7.60721 14.9638637,0 17.9370525,-4.91149 17.9370525,-4.91149 h -5.5174617 l 15.3687508,-21.924 z m 43.823949,0.78577 -14.002485,0.0694 c 0,0 -7.851751,17.30573 -12.1392581,19.09094 -4.2875069,1.78519 -7.60013793,-0.0499 -7.60013793,-0.81127 0,-0.76149 1.1678301,-2.52853 7.39625953,-2.25541 l 6.8341715,-10.36239 c 0,0 -11.3465863,-0.8858 -15.7142091,8.57988 -4.3676302,9.46568 6.7104741,11.43132 15.5414801,10.42612 8.831005,-1.0052 19.684179,-24.73725 19.684179,-24.73725 z m -16.06817,25.21014 c -44.237259,1.49745 -84.864388,6.76338 -84.864388,6.76338 l 12.704173,9.76068 c 0,0 34.035256,-5.44182 37.50938,-7.07487 3.474124,-1.63304 4.448515,-0.4573 4.448515,-0.4573 -0.949686,2.22639 -8.374594,3.1318 -8.374594,3.1318 -12.997272,1.67405 -12.777793,7.65959 -12.777793,7.65959 0,0 0.188539,2.05745 4.523556,-0.0623 4.33501,-2.11976 10.355479,-3.06454 10.579024,-1.8972 0.223531,1.16735 -8.901277,3.41496 -8.901277,3.41496 0.39863,2.60398 -6.880014,6.50255 -9.069759,10.59886 -2.189745,4.0963 3.126136,5.61656 3.126136,5.61656 23.586307,0 27.9129374,-14.67217 27.9129374,-14.67217 0,0 1.4097948,-2.353 2.4224742,-1.76836 1.0126868,0.58467 0.2194493,2.33611 0.2194493,2.33611 l -18.2782629,34.52626 c 0,0 8.283698,-0.51413 13.8184258,-1.25866 5.5347204,-0.74456 7.27683867,-10.15665 15.8034074,-27.80818 8.5265618,-17.65148 2.6858158,-18.05031 2.6858158,-18.05031 0,0 -6.863058,0.13132 -7.6227905,-0.41484 -0.7597181,-0.54612 0.1415803,-1.27848 0.1415803,-1.27848 H 24.665586 v -5.26545 c -3.515574,-3.68248 -7.788438,-3.80006 -7.788438,-3.80006 z m -26.3498702,16.35133 1.230353,0.95426 c -2.4889038,6.23011 -4.8378668,7.87764 -4.8378668,7.87764 0,0 -4.484338,1.89577 -6.061136,3.02278 -1.576776,1.12712 -3.10773,0.20105 -3.10773,0.20105 1.00013,-2.48137 4.900098,-2.98573 6.524109,-3.72079 1.62401,-0.735 6.2522708,-8.33494 6.2522708,-8.33494 z" />
      <path
         id="path9383"
         style="fill:#f42427;fill-opacity:1;stroke:none;stroke-width:0.0913717px;stroke-linecap:butt;stroke-linejoin:miter;stroke-opacity:1"
         d="m 50.260244,129.62269 c -19.576864,3.92202 -21.007086,9.96134 -21.007086,13.47556 0,3.5142 4.655128,6.9623 13.835935,7.09207 9.180799,0.12968 15.067355,-4.88936 16.682498,-7.02973 1.61515,-2.14041 0.356255,-5.88006 -0.448576,-6.47471 -2.734265,-3.1271 -9.062771,-7.06319 -9.062771,-7.06319 z m -5.712893,7.51328 c 2.090282,-0.0224 3.632708,3.20086 3.632708,3.20086 0,0 -0.85166,4.97434 -10.066365,1.65442 -0.191826,-2.14035 3.70509,-4.28898 6.007885,-4.8051 0.14393,-0.0322 0.28642,-0.0487 0.425772,-0.0502 z m 14.606883,13.23378 c -4.356913,1.74219 -42.804888,2.30675 -42.804888,2.30675 l 2.527235,5.53498 41.950307,-1.98286 c 0.970319,-4.03151 -1.672654,-5.85887 -1.672654,-5.85887 z m -12.398978,7.46311 -0.842411,0.76486 c -2.967051,3.3168 -15.882853,4.548 -16.297787,3.16588 -0.245639,-0.81817 0.553352,-2.23015 1.24689,-3.24951 -2.194717,0.10352 -4.389457,0.20714 -6.584197,0.3102 -1.56727,1.1754 -2.562572,2.74102 -2.496824,4.14668 0.146764,3.13783 5.852791,5.02557 5.852791,5.02557 13.808055,3.60208 27.392083,-2.59414 27.392083,-2.59414 z" />
      <path
         id="path11013"
         style="fill:#f42427;fill-opacity:1;stroke:none;stroke-width:0.0913717px;stroke-linecap:butt;stroke-linejoin:miter;stroke-opacity:1"
         d="m 73.148315,127.95003 c -9.286705,8.99922 -12.30753,16.3703 -13.186642,21.0527 1.056224,0.8469 1.895428,1.96506 2.293063,3.27081 0.256975,0.74364 0.348073,1.51004 0.336052,2.27939 h 6.055026 c 3.215181,-8.72338 7.53502,-14.50076 10.618347,-18.8448 3.083335,-4.34404 6.822938,-7.7581 6.822938,-7.7581 z" />
      <path
         id="path13918"
         style="fill:#f42427;fill-opacity:1;stroke:none;stroke-width:0.0913717px;stroke-linecap:butt;stroke-linejoin:miter;stroke-opacity:1"
         d="m 110.12125,125.5201 -4.52381,7.97099 h -7.257801 l 2.308271,-4.85072 -9.667976,0.10328 c 0,0 -3.481879,8.2643 -5.040778,9.04302 -1.558946,0.77871 -8.394129,0.15978 -10.069432,5.87863 -1.675291,5.71874 5.194911,7.88566 8.15498,6.73627 2.960054,-1.14941 12.004217,-3.38124 12.662051,-2.79488 0.657835,0.58639 0.93667,2.17295 0.93667,2.17295 h 9.876315 c 0,0 10.56378,-20.31771 15.0387,-24.25966 z m -6.17669,11.54288 -1.71524,3.05945 c 0,0 -2.355264,2.76275 -8.629407,2.64431 l 2.980381,-4.6302 3.672266,0.14889 c -3.495419,1.06885 -5.703796,3.97028 -5.703796,3.97028 0,0 5.549986,0.0265 9.395796,-5.19285 z m -26.33222,6.97653 6.033738,0.45009 -4.5694,3.14916 c -1.772107,-0.66981 -1.464338,-3.59925 -1.464338,-3.59925 z"
         sodipodi:nodetypes="cccccsssscccccccccccccccc" />
      <path
         id="path17227"
         style="fill:#f42427;fill-opacity:1;stroke:none;stroke-width:0.0913717px;stroke-linecap:butt;stroke-linejoin:miter;stroke-opacity:1"
         d="m 97.561545,150.61001 c -6.26043,0.0164 -17.692795,0.34555 -26.747353,2.2885 0,0 -1.391256,5.61693 2.174459,5.79045 3.565715,0.17361 6.507852,-2.97976 8.840769,-2.65649 0,0 -0.967228,3.86403 -5.183731,4.28961 -4.216494,0.42555 -9.440242,0.40891 -8.167138,6.28616 1.273103,5.87725 29.14376,4.23484 33.152119,1.95093 4.00832,-2.28392 4.57092,-4.21358 4.57092,-4.21358 l -5.46047,-4.85072 c 0,0 -7.22475,5.17872 -18.42359,4.78077 0,0 -1.552244,-2.27299 1.604235,-2.52876 3.156464,-0.2557 10.817562,0.24802 14.150702,-3.14156 3.333103,-3.38839 4.111703,-7.94513 4.111703,-7.94513 0,0 -1.77698,-0.0577 -4.622625,-0.0502 z" />
    </g>
    <g
       id="g840"
       transform="matrix(2.8956724,0,0,2.8956724,-214.00566,-228.86982)"
       style="stroke:none;stroke-width:0.345343">
      <path
         style="fill:#f42427;fill-opacity:1;stroke:none;stroke-width:0.0974634"
         d="m 188.88632,171.66231 c -6.45479,-1.17546 -15.63469,-5.98207 -22.91639,-11.99906 -7.26999,-6.00731 -18.71803,-18.63108 -18.27327,-20.14999 0.2872,-0.98122 7.19425,-8.04611 12.56483,-12.85222 5.61372,-5.02365 14.15259,-11.4378 15.75665,-11.83593 0.63915,-0.1586 1.73669,1.01059 2.58076,2.74942 2.46535,5.07833 6.30663,8.89566 9.93372,9.87176 2.37237,0.63847 6.19732,-1.29881 8.26692,-4.18703 0.81506,-1.13741 1.75914,-2.2075 2.09815,-2.37805 1.37111,-0.68979 12.42579,5.2264 17.59422,9.41596 2.83028,2.29435 3.61011,3.44768 3.33489,4.9322 -0.95238,5.13617 -8.68841,21.98986 -12.47201,27.17138 -0.829,1.13527 -2.88593,3.24471 -4.57092,4.68762 -4.68899,4.01521 -9.06223,5.4545 -13.89755,4.57394 z m -74.15903,-2.65017 c -2.6374,-0.56917 -4.07486,-1.90988 -4.19191,-3.90975 -0.20715,-3.53429 13.22251,-20.13954 27.15859,-33.58116 7.09973,-6.84785 17.35089,-15.80261 21.91636,-19.14478 3.33943,-2.44463 2.98603,-2.6811 -1.70832,-1.14303 -8.2455,2.70152 -16.47581,8.29184 -19.47041,13.22498 -0.61078,1.0062 -1.38478,1.96738 -1.72003,2.13608 -0.87184,0.43859 -6.02935,-6.79397 -8.30405,-11.64513 -2.12858,-4.53949 -2.17074,-9.16357 -0.10034,-11.01205 2.41735,-2.15832 9.03948,-3.3871 24.48123,-4.542633 19.0126,-1.422748 42.1656,-1.927541 71.72009,-1.563637 34.79516,0.428405 54.32977,-0.43885 61.73497,-2.7408 1.29166,-0.401539 2.36283,-0.52077 2.38052,-0.265123 0.0683,0.986252 -8.78996,6.943013 -14.30346,9.618663 -8.63353,4.18971 -12.39248,5.11028 -20.54134,5.03069 -3.7016,-0.0359 -9.73384,-0.5557 -13.40501,-1.15454 -3.67114,-0.59886 -9.20029,-1.39488 -12.28693,-1.76902 -7.66058,-0.92849 -34.72365,-0.92914 -44.26902,-0.001 -8.62626,0.83874 -7.32637,0.16242 -15.90952,8.27633 -9.28324,8.77557 -22.05361,22.80319 -26.88935,29.53661 -2.05115,2.85591 -2.30221,3.55149 -1.68463,4.66501 0.84477,1.52315 1.33582,1.56558 6.35633,0.54937 l 3.75115,-0.75929 1.73212,2.49198 c 0.95268,1.3706 3.29468,4.26097 5.20448,6.423 3.39787,3.8467 3.43,3.95375 1.49816,4.98991 -2.90329,1.55719 -10.8226,3.88024 -16.5557,4.85651 -9.70627,1.65283 -22.40421,2.33691 -26.59389,1.43272 z m 112.22973,-39.13022 c -1.20694,-0.39642 -4.65636,-2.08003 -7.66541,-3.74133 -9.24363,-5.10342 -19.51528,-7.69945 -27.35829,-6.91444 -4.1617,0.41655 -3.87012,-0.0939 0.81452,-1.4258 2.74772,-0.78128 5.16704,-1.03113 10.06343,-1.03919 7.21958,-0.0118 12.88762,1.0737 24.60543,4.71301 10.13956,3.14913 17.49594,3.88824 23.60621,2.37177 1.98854,-0.49355 0.13565,1.21298 -3.18209,2.9308 -1.75929,0.91092 -4.49226,2.06481 -6.0732,2.56422 -3.75239,1.18534 -11.93847,1.4843 -14.8106,0.54096 z m 8.56409,-9.58718 c -2.66792,-0.69842 -7.13457,-1.91327 -9.92581,-2.69967 -2.79123,-0.78639 -9.12517,-2.16176 -14.07543,-3.05635 -8.33572,-1.50638 -9.76538,-1.60672 -19.35812,-1.35887 -5.6967,0.14713 -11.22106,0.4483 -12.27628,0.66919 -3.75551,0.78604 -0.009,-0.9244 5.33106,-2.43439 13.17934,-3.7262 25.22569,-3.7711 45.9467,-0.17126 15.46035,2.68593 27.87472,2.99389 37.85552,0.93912 1.85836,-0.38259 1.85625,-0.37609 -0.42425,1.28377 -9.88838,7.19725 -22.06261,9.71076 -33.07339,6.82843 z M 182.64913,95.716374 c 0.0945,-0.131532 4.34487,-3.07063 9.44558,-6.531057 10.89623,-7.392132 25.61188,-16.317564 34.57777,-20.972309 l 6.37239,-3.308328 1.35328,0.94276 c 1.61604,1.125875 2.35365,6.266552 1.66312,11.591491 -0.65045,5.015884 -2.83293,15.943714 -3.22232,16.134243 -0.16654,0.08121 -5.03792,0.22687 -10.82551,0.323032 l -10.52291,0.174787 0.84436,-3.706777 c 0.58786,-2.580519 0.47313,-3.946594 -0.37756,-4.496025 -1.16536,-0.752731 -1.43069,-0.697176 -5.73257,1.199703 -2.48091,1.093919 -6.89902,3.541142 -9.81805,5.438315 l -5.30737,3.449364 h -4.31085 c -2.37098,0 -4.2337,-0.107697 -4.13936,-0.239523 z"
         id="path828"
         inkscape:connector-curvature="0" />
      <path
         id="path830"
         style="fill:#f42427;fill-opacity:1;stroke:none;stroke-width:0.0913717px;stroke-linecap:butt;stroke-linejoin:miter;stroke-opacity:1"
         d="m -10.878631,113.49065 c 0,0 -9.257813,13.76644 -12.253945,19.22828 -2.996132,5.46181 1.714565,7.60721 1.714565,7.60721 14.9638637,0 17.9370525,-4.91149 17.9370525,-4.91149 h -5.5174617 l 15.3687508,-21.924 z m 43.823949,0.78577 -14.002485,0.0694 c 0,0 -7.851751,17.30573 -12.1392581,19.09094 -4.2875069,1.78519 -7.60013793,-0.0499 -7.60013793,-0.81127 0,-0.76149 1.1678301,-2.52853 7.39625953,-2.25541 l 6.8341715,-10.36239 c 0,0 -11.3465863,-0.8858 -15.7142091,8.57988 -4.3676302,9.46568 6.7104741,11.43132 15.5414801,10.42612 8.831005,-1.0052 19.684179,-24.73725 19.684179,-24.73725 z m -16.06817,25.21014 c -44.237259,1.49745 -84.864388,6.76338 -84.864388,6.76338 l 12.704173,9.76068 c 0,0 34.035256,-5.44182 37.50938,-7.07487 3.474124,-1.63304 4.448515,-0.4573 4.448515,-0.4573 -0.949686,2.22639 -8.374594,3.1318 -8.374594,3.1318 -12.997272,1.67405 -12.777793,7.65959 -12.777793,7.65959 0,0 0.188539,2.05745 4.523556,-0.0623 4.33501,-2.11976 10.355479,-3.06454 10.579024,-1.8972 0.223531,1.16735 -8.901277,3.41496 -8.901277,3.41496 0.39863,2.60398 -6.880014,6.50255 -9.069759,10.59886 -2.189745,4.0963 3.126136,5.61656 3.126136,5.61656 23.586307,0 27.9129374,-14.67217 27.9129374,-14.67217 0,0 1.4097948,-2.353 2.4224742,-1.76836 1.0126868,0.58467 0.2194493,2.33611 0.2194493,2.33611 l -18.2782629,34.52626 c 0,0 8.283698,-0.51413 13.8184258,-1.25866 5.5347204,-0.74456 7.27683867,-10.15665 15.8034074,-27.80818 8.5265618,-17.65148 2.6858158,-18.05031 2.6858158,-18.05031 0,0 -6.863058,0.13132 -7.6227905,-0.41484 -0.7597181,-0.54612 0.1415803,-1.27848 0.1415803,-1.27848 H 24.665586 v -5.26545 c -3.515574,-3.68248 -7.788438,-3.80006 -7.788438,-3.80006 z m -26.3498702,16.35133 1.230353,0.95426 c -2.4889038,6.23011 -4.8378668,7.87764 -4.8378668,7.87764 0,0 -4.484338,1.89577 -6.061136,3.02278 -1.576776,1.12712 -3.10773,0.20105 -3.10773,0.20105 1.00013,-2.48137 4.900098,-2.98573 6.524109,-3.72079 1.62401,-0.735 6.2522708,-8.33494 6.2522708,-8.33494 z" />
      <path
         id="path832"
         style="fill:#f42427;fill-opacity:1;stroke:none;stroke-width:0.0913717px;stroke-linecap:butt;stroke-linejoin:miter;stroke-opacity:1"
         d="m 50.260244,129.62269 c -19.576864,3.92202 -21.007086,9.96134 -21.007086,13.47556 0,3.5142 4.655128,6.9623 13.835935,7.09207 9.180799,0.12968 15.067355,-4.88936 16.682498,-7.02973 1.61515,-2.14041 0.356255,-5.88006 -0.448576,-6.47471 -2.734265,-3.1271 -9.062771,-7.06319 -9.062771,-7.06319 z m -5.712893,7.51328 c 2.090282,-0.0224 3.632708,3.20086 3.632708,3.20086 0,0 -0.85166,4.97434 -10.066365,1.65442 -0.191826,-2.14035 3.70509,-4.28898 6.007885,-4.8051 0.14393,-0.0322 0.28642,-0.0487 0.425772,-0.0502 z m 14.606883,13.23378 c -4.356913,1.74219 -42.804888,2.30675 -42.804888,2.30675 l 2.527235,5.53498 41.950307,-1.98286 c 0.970319,-4.03151 -1.672654,-5.85887 -1.672654,-5.85887 z m -12.398978,7.46311 -0.842411,0.76486 c -2.967051,3.3168 -15.882853,4.548 -16.297787,3.16588 -0.245639,-0.81817 0.553352,-2.23015 1.24689,-3.24951 -2.194717,0.10352 -4.389457,0.20714 -6.584197,0.3102 -1.56727,1.1754 -2.562572,2.74102 -2.496824,4.14668 0.146764,3.13783 5.852791,5.02557 5.852791,5.02557 13.808055,3.60208 27.392083,-2.59414 27.392083,-2.59414 z" />
      <path
         id="path834"
         style="fill:#f42427;fill-opacity:1;stroke:none;stroke-width:0.0913717px;stroke-linecap:butt;stroke-linejoin:miter;stroke-opacity:1"
         d="m 73.148315,127.95003 c -9.286705,8.99922 -12.30753,16.3703 -13.186642,21.0527 1.056224,0.8469 1.895428,1.96506 2.293063,3.27081 0.256975,0.74364 0.348073,1.51004 0.336052,2.27939 h 6.055026 c 3.215181,-8.72338 7.53502,-14.50076 10.618347,-18.8448 3.083335,-4.34404 6.822938,-7.7581 6.822938,-7.7581 z" />
      <path
         id="path836"
         style="fill:#f42427;fill-opacity:1;stroke:none;stroke-width:0.0913717px;stroke-linecap:butt;stroke-linejoin:miter;stroke-opacity:1"
         d="m 110.12125,125.5201 -4.52381,7.97099 h -7.257801 l 2.308271,-4.85072 -9.667976,0.10328 c 0,0 -3.481879,8.2643 -5.040778,9.04302 -1.558946,0.77871 -8.394129,0.15978 -10.069432,5.87863 -1.675291,5.71874 5.194911,7.88566 8.15498,6.73627 2.960054,-1.14941 12.004217,-3.38124 12.662051,-2.79488 0.657835,0.58639 0.93667,2.17295 0.93667,2.17295 h 9.876315 c 0,0 10.56378,-20.31771 15.0387,-24.25966 z m -6.17669,11.54288 -1.71524,3.05945 c 0,0 -2.355264,2.76275 -8.629407,2.64431 l 2.980381,-4.6302 3.672266,0.14889 c -3.495419,1.06885 -5.703796,3.97028 -5.703796,3.97028 0,0 5.549986,0.0265 9.395796,-5.19285 z m -26.33222,6.97653 6.033738,0.45009 -4.5694,3.14916 c -1.772107,-0.66981 -1.464338,-3.59925 -1.464338,-3.59925 z"
         sodipodi:nodetypes="cccccsssscccccccccccccccc" />
      <path
         id="path838"
         style="fill:#f42427;fill-opacity:1;stroke:none;stroke-width:0.0913717px;stroke-linecap:butt;stroke-linejoin:miter;stroke-opacity:1"
         d="m 97.561545,150.61001 c -6.26043,0.0164 -17.692795,0.34555 -26.747353,2.2885 0,0 -1.391256,5.61693 2.174459,5.79045 3.565715,0.17361 6.507852,-2.97976 8.840769,-2.65649 0,0 -0.967228,3.86403 -5.183731,4.28961 -4.216494,0.42555 -9.440242,0.40891 -8.167138,6.28616 1.273103,5.87725 29.14376,4.23484 33.152119,1.95093 4.00832,-2.28392 4.57092,-4.21358 4.57092,-4.21358 l -5.46047,-4.85072 c 0,0 -7.22475,5.17872 -18.42359,4.78077 0,0 -1.552244,-2.27299 1.604235,-2.52876 3.156464,-0.2557 10.817562,0.24802 14.150702,-3.14156 3.333103,-3.38839 4.111703,-7.94513 4.111703,-7.94513 0,0 -1.77698,-0.0577 -4.622625,-0.0502 z" />
    </g>
  </g>
</svg>
